<mxfile host="app.diagrams.net" modified="2021-12-16T08:37:54.791Z" agent="5.0 (Windows NT 10.0; Win64; x64) AppleWebKit/537.36 (KHTML, like Gecko) Chrome/96.0.4664.93 Safari/537.36 Edg/96.0.1054.53" etag="smphMt_K9FfyVHD97mcS" version="15.9.6" type="github">
  <diagram id="6Dj5aeYcOtqBnt-C8Mtu" name="Page-1">
    <mxGraphModel dx="1108" dy="450" grid="1" gridSize="10" guides="1" tooltips="1" connect="1" arrows="1" fold="1" page="1" pageScale="1" pageWidth="827" pageHeight="1169" math="0" shadow="0">
      <root>
        <mxCell id="0" />
        <mxCell id="1" parent="0" />
        <mxCell id="oW6ZPBcgrBnlRRWnADtl-4" value="" style="endArrow=classic;html=1;rounded=0;" parent="1" edge="1">
          <mxGeometry width="50" height="50" relative="1" as="geometry">
            <mxPoint x="120" y="50" as="sourcePoint" />
            <mxPoint x="120" y="200" as="targetPoint" />
          </mxGeometry>
        </mxCell>
        <mxCell id="r11uhpQthuhu6qJ7FHOZ-1" value="" style="endArrow=classic;html=1;rounded=0;" edge="1" parent="1">
          <mxGeometry width="50" height="50" relative="1" as="geometry">
            <mxPoint x="170" y="278" as="sourcePoint" />
            <mxPoint x="170" y="228" as="targetPoint" />
          </mxGeometry>
        </mxCell>
        <mxCell id="r11uhpQthuhu6qJ7FHOZ-2" value="mock up" style="text;html=1;strokeColor=none;fillColor=none;align=center;verticalAlign=middle;whiteSpace=wrap;rounded=0;" vertex="1" parent="1">
          <mxGeometry x="200" y="120" width="60" height="30" as="geometry" />
        </mxCell>
        <mxCell id="r11uhpQthuhu6qJ7FHOZ-3" value="编译环境" style="text;html=1;strokeColor=none;fillColor=none;align=center;verticalAlign=middle;whiteSpace=wrap;rounded=0;" vertex="1" parent="1">
          <mxGeometry x="140" y="298" width="60" height="30" as="geometry" />
        </mxCell>
        <mxCell id="r11uhpQthuhu6qJ7FHOZ-6" value="" style="endArrow=classic;html=1;rounded=0;" edge="1" parent="1">
          <mxGeometry width="50" height="50" relative="1" as="geometry">
            <mxPoint x="230" y="160" as="sourcePoint" />
            <mxPoint x="230" y="200" as="targetPoint" />
          </mxGeometry>
        </mxCell>
        <mxCell id="r11uhpQthuhu6qJ7FHOZ-14" value="" style="endArrow=classic;html=1;rounded=0;" edge="1" parent="1">
          <mxGeometry width="50" height="50" relative="1" as="geometry">
            <mxPoint x="260" y="278" as="sourcePoint" />
            <mxPoint x="260" y="228" as="targetPoint" />
          </mxGeometry>
        </mxCell>
        <mxCell id="r11uhpQthuhu6qJ7FHOZ-15" value="bring up" style="text;html=1;strokeColor=none;fillColor=none;align=center;verticalAlign=middle;whiteSpace=wrap;rounded=0;" vertex="1" parent="1">
          <mxGeometry x="230" y="298" width="60" height="30" as="geometry" />
        </mxCell>
        <mxCell id="r11uhpQthuhu6qJ7FHOZ-17" value="" style="endArrow=classic;html=1;rounded=0;" edge="1" parent="1">
          <mxGeometry width="50" height="50" relative="1" as="geometry">
            <mxPoint x="340" y="278" as="sourcePoint" />
            <mxPoint x="340" y="228" as="targetPoint" />
          </mxGeometry>
        </mxCell>
        <mxCell id="r11uhpQthuhu6qJ7FHOZ-18" value="BSP" style="text;html=1;strokeColor=none;fillColor=none;align=center;verticalAlign=middle;whiteSpace=wrap;rounded=0;" vertex="1" parent="1">
          <mxGeometry x="310" y="298" width="60" height="30" as="geometry" />
        </mxCell>
        <mxCell id="r11uhpQthuhu6qJ7FHOZ-19" value="" style="endArrow=classic;html=1;rounded=0;" edge="1" parent="1">
          <mxGeometry width="50" height="50" relative="1" as="geometry">
            <mxPoint x="430" y="278" as="sourcePoint" />
            <mxPoint x="430" y="228" as="targetPoint" />
          </mxGeometry>
        </mxCell>
        <mxCell id="r11uhpQthuhu6qJ7FHOZ-20" value="pre-Alpha" style="text;html=1;strokeColor=none;fillColor=none;align=center;verticalAlign=middle;whiteSpace=wrap;rounded=0;" vertex="1" parent="1">
          <mxGeometry x="400" y="298" width="60" height="30" as="geometry" />
        </mxCell>
        <mxCell id="r11uhpQthuhu6qJ7FHOZ-21" value="" style="endArrow=classic;html=1;rounded=0;" edge="1" parent="1">
          <mxGeometry width="50" height="50" relative="1" as="geometry">
            <mxPoint x="520" y="278" as="sourcePoint" />
            <mxPoint x="520" y="228" as="targetPoint" />
          </mxGeometry>
        </mxCell>
        <mxCell id="r11uhpQthuhu6qJ7FHOZ-22" value="Alpha" style="text;html=1;strokeColor=none;fillColor=none;align=center;verticalAlign=middle;whiteSpace=wrap;rounded=0;" vertex="1" parent="1">
          <mxGeometry x="490" y="298" width="60" height="30" as="geometry" />
        </mxCell>
        <mxCell id="r11uhpQthuhu6qJ7FHOZ-23" value="" style="endArrow=classic;html=1;rounded=0;" edge="1" parent="1">
          <mxGeometry width="50" height="50" relative="1" as="geometry">
            <mxPoint x="625" y="278" as="sourcePoint" />
            <mxPoint x="625" y="228" as="targetPoint" />
          </mxGeometry>
        </mxCell>
        <mxCell id="r11uhpQthuhu6qJ7FHOZ-24" value="Beta" style="text;html=1;strokeColor=none;fillColor=none;align=center;verticalAlign=middle;whiteSpace=wrap;rounded=0;" vertex="1" parent="1">
          <mxGeometry x="595" y="298" width="60" height="30" as="geometry" />
        </mxCell>
        <mxCell id="r11uhpQthuhu6qJ7FHOZ-25" value="" style="endArrow=classic;html=1;rounded=0;" edge="1" parent="1">
          <mxGeometry width="50" height="50" relative="1" as="geometry">
            <mxPoint x="730" y="278" as="sourcePoint" />
            <mxPoint x="730" y="228" as="targetPoint" />
          </mxGeometry>
        </mxCell>
        <mxCell id="r11uhpQthuhu6qJ7FHOZ-26" value="TA" style="text;html=1;strokeColor=none;fillColor=none;align=center;verticalAlign=middle;whiteSpace=wrap;rounded=0;" vertex="1" parent="1">
          <mxGeometry x="700" y="298" width="60" height="30" as="geometry" />
        </mxCell>
        <mxCell id="r11uhpQthuhu6qJ7FHOZ-29" value="proto" style="text;html=1;strokeColor=none;fillColor=none;align=center;verticalAlign=middle;whiteSpace=wrap;rounded=0;" vertex="1" parent="1">
          <mxGeometry x="453" y="120" width="60" height="30" as="geometry" />
        </mxCell>
        <mxCell id="r11uhpQthuhu6qJ7FHOZ-30" value="" style="endArrow=classic;html=1;rounded=0;" edge="1" parent="1">
          <mxGeometry width="50" height="50" relative="1" as="geometry">
            <mxPoint x="483" y="160" as="sourcePoint" />
            <mxPoint x="483" y="200" as="targetPoint" />
          </mxGeometry>
        </mxCell>
        <mxCell id="r11uhpQthuhu6qJ7FHOZ-31" value="pio" style="text;html=1;strokeColor=none;fillColor=none;align=center;verticalAlign=middle;whiteSpace=wrap;rounded=0;" vertex="1" parent="1">
          <mxGeometry x="560" y="120" width="60" height="30" as="geometry" />
        </mxCell>
        <mxCell id="r11uhpQthuhu6qJ7FHOZ-32" value="" style="endArrow=classic;html=1;rounded=0;" edge="1" parent="1">
          <mxGeometry width="50" height="50" relative="1" as="geometry">
            <mxPoint x="590" y="160" as="sourcePoint" />
            <mxPoint x="590" y="200" as="targetPoint" />
          </mxGeometry>
        </mxCell>
        <mxCell id="r11uhpQthuhu6qJ7FHOZ-33" value="lot 0" style="text;html=1;strokeColor=none;fillColor=none;align=center;verticalAlign=middle;whiteSpace=wrap;rounded=0;" vertex="1" parent="1">
          <mxGeometry x="660" y="120" width="60" height="30" as="geometry" />
        </mxCell>
        <mxCell id="r11uhpQthuhu6qJ7FHOZ-34" value="" style="endArrow=classic;html=1;rounded=0;" edge="1" parent="1">
          <mxGeometry width="50" height="50" relative="1" as="geometry">
            <mxPoint x="690" y="160" as="sourcePoint" />
            <mxPoint x="690" y="200" as="targetPoint" />
          </mxGeometry>
        </mxCell>
        <mxCell id="r11uhpQthuhu6qJ7FHOZ-35" value="lot 1" style="text;html=1;strokeColor=none;fillColor=none;align=center;verticalAlign=middle;whiteSpace=wrap;rounded=0;" vertex="1" parent="1">
          <mxGeometry x="750" y="120" width="60" height="30" as="geometry" />
        </mxCell>
        <mxCell id="r11uhpQthuhu6qJ7FHOZ-36" value="" style="endArrow=classic;html=1;rounded=0;" edge="1" parent="1">
          <mxGeometry width="50" height="50" relative="1" as="geometry">
            <mxPoint x="780" y="160" as="sourcePoint" />
            <mxPoint x="780" y="200" as="targetPoint" />
          </mxGeometry>
        </mxCell>
        <mxCell id="r11uhpQthuhu6qJ7FHOZ-37" value="DR0" style="text;html=1;strokeColor=none;fillColor=none;align=center;verticalAlign=middle;whiteSpace=wrap;rounded=0;" vertex="1" parent="1">
          <mxGeometry x="90" y="10" width="60" height="30" as="geometry" />
        </mxCell>
        <mxCell id="r11uhpQthuhu6qJ7FHOZ-38" value="" style="endArrow=classic;html=1;rounded=0;" edge="1" parent="1">
          <mxGeometry width="50" height="50" relative="1" as="geometry">
            <mxPoint x="40" y="50" as="sourcePoint" />
            <mxPoint x="40" y="200" as="targetPoint" />
          </mxGeometry>
        </mxCell>
        <mxCell id="r11uhpQthuhu6qJ7FHOZ-39" value="ko" style="text;html=1;strokeColor=none;fillColor=none;align=center;verticalAlign=middle;whiteSpace=wrap;rounded=0;" vertex="1" parent="1">
          <mxGeometry x="10" y="10" width="60" height="30" as="geometry" />
        </mxCell>
        <mxCell id="r11uhpQthuhu6qJ7FHOZ-40" value="" style="endArrow=classic;html=1;rounded=0;" edge="1" parent="1">
          <mxGeometry width="50" height="50" relative="1" as="geometry">
            <mxPoint x="390" y="50" as="sourcePoint" />
            <mxPoint x="390" y="200" as="targetPoint" />
          </mxGeometry>
        </mxCell>
        <mxCell id="r11uhpQthuhu6qJ7FHOZ-41" value="DR1" style="text;html=1;strokeColor=none;fillColor=none;align=center;verticalAlign=middle;whiteSpace=wrap;rounded=0;" vertex="1" parent="1">
          <mxGeometry x="360" y="10" width="60" height="30" as="geometry" />
        </mxCell>
        <mxCell id="r11uhpQthuhu6qJ7FHOZ-42" value="" style="endArrow=classic;html=1;rounded=0;" edge="1" parent="1">
          <mxGeometry width="50" height="50" relative="1" as="geometry">
            <mxPoint x="630" y="50" as="sourcePoint" />
            <mxPoint x="630" y="200" as="targetPoint" />
          </mxGeometry>
        </mxCell>
        <mxCell id="r11uhpQthuhu6qJ7FHOZ-43" value="DR2" style="text;html=1;strokeColor=none;fillColor=none;align=center;verticalAlign=middle;whiteSpace=wrap;rounded=0;" vertex="1" parent="1">
          <mxGeometry x="600" y="10" width="60" height="30" as="geometry" />
        </mxCell>
        <mxCell id="r11uhpQthuhu6qJ7FHOZ-44" value="" style="endArrow=classic;html=1;rounded=0;" edge="1" parent="1">
          <mxGeometry width="50" height="50" relative="1" as="geometry">
            <mxPoint x="820" y="50" as="sourcePoint" />
            <mxPoint x="820" y="200" as="targetPoint" />
          </mxGeometry>
        </mxCell>
        <mxCell id="r11uhpQthuhu6qJ7FHOZ-45" value="FSR" style="text;html=1;strokeColor=none;fillColor=none;align=center;verticalAlign=middle;whiteSpace=wrap;rounded=0;" vertex="1" parent="1">
          <mxGeometry x="790" y="10" width="60" height="30" as="geometry" />
        </mxCell>
        <mxCell id="r11uhpQthuhu6qJ7FHOZ-46" value="" style="html=1;shadow=0;dashed=0;align=center;verticalAlign=middle;shape=mxgraph.arrows2.arrow;dy=0.6;dx=40;notch=0;" vertex="1" parent="1">
          <mxGeometry x="10" y="195" width="900" height="40" as="geometry" />
        </mxCell>
      </root>
    </mxGraphModel>
  </diagram>
</mxfile>
